<?xml version="1.0" encoding="UTF-8" standalone="no"?>
<!DOCTYPE svg PUBLIC "-//W3C//DTD SVG 1.1//EN" "http://www.w3.org/Graphics/SVG/1.1/DTD/svg11.dtd">
<svg width="100%" height="100%" viewBox="0 0 1175 94" version="1.1" xmlns="http://www.w3.org/2000/svg" xmlns:xlink="http://www.w3.org/1999/xlink" xml:space="preserve" xmlns:serif="http://www.serif.com/" style="fill-rule:evenodd;clip-rule:evenodd;stroke-linejoin:round;stroke-miterlimit:2;">
    <g transform="matrix(1,0,0,1,-75,-70)">
        <g id="base-creative">
            <g transform="matrix(8.33333,0,0,8.33333,94.3647,106.936)">
                <path d="M0,1.507L0,3.98L1.622,3.98C1.926,3.98 2.174,3.942 2.368,3.864C2.561,3.787 2.712,3.687 2.821,3.565C2.93,3.442 3.005,3.303 3.046,3.149C3.087,2.994 3.107,2.838 3.107,2.679C3.107,2.497 3.083,2.333 3.036,2.188C2.988,2.043 2.906,1.92 2.791,1.819C2.675,1.72 2.521,1.643 2.33,1.588C2.14,1.533 1.899,1.507 1.608,1.507L0,1.507ZM0,-0.034L1.199,-0.034C1.453,-0.034 1.683,-0.052 1.888,-0.088C2.092,-0.125 2.266,-0.188 2.409,-0.279C2.552,-0.37 2.661,-0.494 2.736,-0.653C2.811,-0.812 2.849,-1.013 2.849,-1.254C2.849,-1.489 2.819,-1.686 2.76,-1.843C2.701,-2 2.61,-2.126 2.487,-2.221C2.365,-2.316 2.209,-2.385 2.02,-2.426C1.832,-2.467 1.608,-2.486 1.349,-2.486L0,-2.486L0,-0.034ZM-2.303,5.718L-2.303,-4.211L1.349,-4.211C2.035,-4.211 2.619,-4.147 3.101,-4.019C3.582,-3.892 3.975,-3.713 4.279,-3.481C4.583,-3.25 4.805,-2.968 4.944,-2.637C5.082,-2.305 5.152,-1.934 5.152,-1.526C5.152,-1.304 5.12,-1.089 5.056,-0.882C4.993,-0.675 4.893,-0.481 4.756,-0.3C4.62,-0.117 4.445,0.047 4.232,0.195C4.018,0.342 3.761,0.471 3.462,0.58C4.116,0.738 4.6,0.996 4.913,1.353C5.227,1.71 5.383,2.167 5.383,2.727C5.383,3.149 5.301,3.542 5.138,3.905C4.974,4.269 4.734,4.585 4.419,4.856C4.103,5.126 3.714,5.337 3.25,5.489C2.787,5.642 2.257,5.718 1.662,5.718L-2.303,5.718Z" style="fill:rgb(98,195,49);fill-rule:nonzero;"/>
            </g>
            <g transform="matrix(8.33333,0,0,8.33333,172.39,103.478)">
                <path d="M0,2.337L2.712,2.337L1.799,-0.382C1.74,-0.555 1.67,-0.758 1.591,-0.991C1.511,-1.226 1.433,-1.478 1.356,-1.751C1.283,-1.475 1.208,-1.218 1.131,-0.981C1.054,-0.745 0.981,-0.541 0.913,-0.368L0,2.337ZM6.378,6.133L4.592,6.133C4.393,6.133 4.228,6.086 4.098,5.993C3.969,5.9 3.879,5.78 3.829,5.635L3.243,3.904L-0.532,3.904L-1.118,5.635C-1.163,5.763 -1.252,5.877 -1.383,5.98C-1.515,6.082 -1.677,6.133 -1.867,6.133L-3.666,6.133L0.177,-3.796L2.535,-3.796L6.378,6.133Z" style="fill:rgb(98,195,49);fill-rule:nonzero;"/>
            </g>
            <g transform="matrix(8.33333,0,0,8.33333,277.211,137.768)">
                <path d="M0,-5.893C-0.068,-5.785 -0.139,-5.703 -0.214,-5.648C-0.29,-5.593 -0.386,-5.566 -0.504,-5.566C-0.609,-5.566 -0.721,-5.599 -0.842,-5.665C-0.962,-5.731 -1.098,-5.805 -1.25,-5.887C-1.402,-5.968 -1.576,-6.042 -1.772,-6.108C-1.967,-6.174 -2.19,-6.206 -2.439,-6.206C-2.871,-6.206 -3.193,-6.115 -3.404,-5.931C-3.615,-5.747 -3.72,-5.498 -3.72,-5.185C-3.72,-4.985 -3.657,-4.819 -3.53,-4.687C-3.402,-4.555 -3.236,-4.442 -3.029,-4.346C-2.822,-4.251 -2.586,-4.164 -2.32,-4.084C-2.054,-4.004 -1.783,-3.916 -1.506,-3.819C-1.229,-3.721 -0.957,-3.606 -0.691,-3.474C-0.426,-3.342 -0.189,-3.174 0.017,-2.97C0.224,-2.766 0.391,-2.517 0.518,-2.224C0.645,-1.931 0.708,-1.578 0.708,-1.164C0.708,-0.706 0.63,-0.276 0.471,0.124C0.311,0.523 0.081,0.872 -0.222,1.169C-0.524,1.467 -0.896,1.701 -1.339,1.872C-1.782,2.042 -2.285,2.127 -2.848,2.127C-3.157,2.127 -3.472,2.095 -3.792,2.032C-4.113,1.968 -4.422,1.878 -4.722,1.762C-5.022,1.647 -5.304,1.509 -5.567,1.35C-5.831,1.191 -6.06,1.014 -6.255,0.819L-5.574,-0.258C-5.524,-0.339 -5.454,-0.406 -5.363,-0.456C-5.272,-0.505 -5.174,-0.531 -5.07,-0.531C-4.933,-0.531 -4.796,-0.488 -4.657,-0.401C-4.519,-0.315 -4.362,-0.219 -4.187,-0.115C-4.012,-0.01 -3.812,0.085 -3.584,0.171C-3.357,0.257 -3.089,0.3 -2.78,0.3C-2.362,0.3 -2.037,0.209 -1.806,0.025C-1.574,-0.16 -1.458,-0.451 -1.458,-0.851C-1.458,-1.082 -1.522,-1.271 -1.649,-1.416C-1.776,-1.562 -1.943,-1.682 -2.15,-1.778C-2.356,-1.873 -2.592,-1.957 -2.855,-2.03C-3.119,-2.102 -3.389,-2.183 -3.666,-2.272C-3.943,-2.36 -4.214,-2.469 -4.477,-2.599C-4.74,-2.728 -4.975,-2.899 -5.182,-3.11C-5.389,-3.321 -5.556,-3.584 -5.683,-3.9C-5.81,-4.216 -5.874,-4.606 -5.874,-5.069C-5.874,-5.442 -5.799,-5.805 -5.649,-6.16C-5.499,-6.513 -5.279,-6.83 -4.988,-7.107C-4.697,-7.383 -4.34,-7.605 -3.918,-7.771C-3.496,-7.937 -3.012,-8.02 -2.467,-8.02C-2.162,-8.02 -1.866,-7.996 -1.578,-7.948C-1.289,-7.9 -1.015,-7.83 -0.756,-7.737C-0.497,-7.643 -0.255,-7.533 -0.031,-7.403C0.194,-7.274 0.395,-7.126 0.572,-6.963L0,-5.893Z" style="fill:rgb(98,195,49);fill-rule:nonzero;"/>
            </g>
            <g transform="matrix(8.33333,0,0,8.33333,344.789,154.588)">
                <path d="M0,-9.929L0,-8.158L-4.075,-8.158L-4.075,-5.84L-0.954,-5.84L-0.954,-4.137L-4.075,-4.137L-4.075,-1.772L0,-1.772L0,0L-6.392,0L-6.392,-9.929L0,-9.929Z" style="fill:rgb(98,195,49);fill-rule:nonzero;"/>
            </g>
            <g transform="matrix(8.33333,0,0,8.33333,418.041,87.7427)">
                <path d="M0,6.399C0.045,6.399 0.084,6.415 0.116,6.447L0.388,6.74C0.188,6.954 -0.03,7.145 -0.266,7.316C-0.502,7.486 -0.76,7.631 -1.039,7.752C-1.319,7.873 -1.625,7.965 -1.959,8.031C-2.293,8.097 -2.66,8.129 -3.06,8.129C-3.727,8.129 -4.34,8.013 -4.896,7.779C-5.453,7.545 -5.93,7.213 -6.327,6.784C-6.725,6.355 -7.035,5.836 -7.257,5.227C-7.48,4.619 -7.591,3.941 -7.591,3.196C-7.591,2.465 -7.477,1.797 -7.247,1.193C-7.018,0.588 -6.695,0.07 -6.28,-0.364C-5.864,-0.797 -5.366,-1.134 -4.787,-1.372C-4.208,-1.611 -3.568,-1.73 -2.869,-1.73C-2.519,-1.73 -2.199,-1.705 -1.908,-1.652C-1.618,-1.6 -1.346,-1.525 -1.094,-1.427C-0.842,-1.33 -0.604,-1.207 -0.382,-1.063C-0.159,-0.917 0.059,-0.749 0.272,-0.558L0.061,-0.251C0.025,-0.197 -0.032,-0.17 -0.109,-0.17C-0.15,-0.17 -0.202,-0.194 -0.266,-0.242C-0.33,-0.289 -0.41,-0.348 -0.508,-0.418C-0.606,-0.489 -0.723,-0.566 -0.862,-0.65C-1.001,-0.735 -1.165,-0.812 -1.356,-0.882C-1.547,-0.953 -1.767,-1.011 -2.017,-1.059C-2.267,-1.107 -2.551,-1.13 -2.869,-1.13C-3.455,-1.13 -3.994,-1.03 -4.484,-0.828C-4.974,-0.625 -5.397,-0.336 -5.751,0.038C-6.106,0.413 -6.382,0.867 -6.579,1.401C-6.777,1.935 -6.876,2.533 -6.876,3.196C-6.876,3.878 -6.778,4.487 -6.583,5.023C-6.388,5.559 -6.117,6.012 -5.772,6.382C-5.427,6.753 -5.019,7.037 -4.549,7.234C-4.078,7.431 -3.568,7.53 -3.019,7.53C-2.674,7.53 -2.366,7.507 -2.096,7.462C-1.825,7.417 -1.577,7.348 -1.349,7.257C-1.122,7.167 -0.911,7.055 -0.716,6.923C-0.521,6.793 -0.327,6.637 -0.136,6.461C-0.114,6.442 -0.092,6.427 -0.072,6.417C-0.051,6.405 -0.027,6.399 0,6.399" style="fill:rgb(29,29,27);fill-rule:nonzero;"/>
            </g>
            <g transform="matrix(8.33333,0,0,8.33333,445.918,114.886)">
                <path d="M0,-0.115L1.677,-0.115C2.104,-0.115 2.486,-0.167 2.825,-0.269C3.163,-0.371 3.449,-0.518 3.683,-0.709C3.917,-0.9 4.095,-1.13 4.218,-1.398C4.341,-1.667 4.402,-1.969 4.402,-2.306C4.402,-2.993 4.177,-3.503 3.727,-3.835C3.278,-4.168 2.624,-4.333 1.765,-4.333L0,-4.333L0,-0.115ZM0,0.403L0,4.764L-0.695,4.764L-0.695,-4.879L1.765,-4.879C2.878,-4.879 3.709,-4.664 4.259,-4.234C4.808,-3.805 5.084,-3.175 5.084,-2.344C5.084,-1.975 5.02,-1.639 4.893,-1.335C4.766,-1.031 4.583,-0.763 4.344,-0.534C4.106,-0.304 3.818,-0.116 3.482,0.031C3.146,0.179 2.767,0.276 2.344,0.321C2.454,0.389 2.551,0.48 2.638,0.593L5.956,4.764L5.349,4.764C5.277,4.764 5.214,4.75 5.162,4.723C5.11,4.696 5.059,4.651 5.009,4.586L1.922,0.675C1.844,0.575 1.761,0.505 1.673,0.464C1.585,0.423 1.447,0.403 1.261,0.403L0,0.403Z" style="fill:rgb(29,29,27);fill-rule:nonzero;"/>
            </g>
            <g transform="matrix(8.33333,0,0,8.33333,557.105,154.588)">
                <path d="M0,-9.643L0,-9.064L-5.077,-9.064L-5.077,-5.165L-0.852,-5.165L-0.852,-4.6L-5.077,-4.6L-5.077,-0.58L0,-0.58L0,0L-5.779,0L-5.779,-9.643L0,-9.643Z" style="fill:rgb(29,29,27);fill-rule:nonzero;"/>
            </g>
            <g transform="matrix(8.33333,0,0,8.33333,581.639,103.419)">
                <path d="M0,2.637L4.32,2.637L2.351,-2.235C2.319,-2.312 2.287,-2.399 2.255,-2.497C2.223,-2.595 2.191,-2.698 2.16,-2.807C2.128,-2.698 2.096,-2.595 2.064,-2.497C2.032,-2.399 2.001,-2.31 1.969,-2.228L0,2.637ZM6.453,6.14L5.915,6.14C5.851,6.14 5.799,6.122 5.758,6.089C5.717,6.055 5.685,6.01 5.663,5.955L4.524,3.156L-0.211,3.156L-1.343,5.955C-1.361,6.006 -1.393,6.049 -1.438,6.085C-1.484,6.121 -1.538,6.14 -1.602,6.14L-2.133,6.14L1.812,-3.503L2.508,-3.503L6.453,6.14Z" style="fill:rgb(29,29,27);fill-rule:nonzero;"/>
            </g>
            <g transform="matrix(8.33333,0,0,8.33333,692.936,154.588)">
                <path d="M0,-9.643L0,-9.05L-3.386,-9.05L-3.386,0L-4.082,0L-4.082,-9.05L-7.489,-9.05L-7.489,-9.643L0,-9.643Z" style="fill:rgb(29,29,27);fill-rule:nonzero;"/>
            </g>
            <g transform="matrix(-8.33333,0,0,8.33333,5979.29,-37740.7)">
                <rect x="631.876" y="4537.8" width="0.702" height="9.643" style="fill:rgb(29,29,27);"/>
            </g>
            <g transform="matrix(8.33333,0,0,8.33333,727.458,154.588)">
                <path d="M0,-9.643L0.552,-9.643C0.615,-9.643 0.668,-9.625 0.708,-9.592C0.75,-9.557 0.781,-9.513 0.804,-9.458L4.089,-1.459C4.175,-1.249 4.246,-1.027 4.3,-0.791C4.35,-1.037 4.416,-1.259 4.498,-1.459L7.775,-9.458C7.798,-9.509 7.83,-9.552 7.874,-9.588C7.917,-9.624 7.971,-9.643 8.034,-9.643L8.579,-9.643L4.599,0L3.979,0L0,-9.643Z" style="fill:rgb(29,29,27);fill-rule:nonzero;"/>
            </g>
            <g transform="matrix(8.33333,0,0,8.33333,858.749,154.588)">
                <path d="M0,-9.643L0,-9.064L-5.077,-9.064L-5.077,-5.165L-0.852,-5.165L-0.852,-4.6L-5.077,-4.6L-5.077,-0.58L0,-0.58L0,0L-5.778,0L-5.778,-9.643L0,-9.643Z" style="fill:rgb(29,29,27);fill-rule:nonzero;"/>
            </g>
            <g transform="matrix(8.33333,0,0,8.33333,-4557.83,-7045.95)">
                <g opacity="0.83">
                    <g transform="matrix(1,0,0,1,659.117,854.932)">
                        <path d="M0,3.202C0.245,3.202 0.433,3.122 0.563,2.961C0.693,2.8 0.758,2.565 0.758,2.258L0.758,2.214C0.758,1.906 0.687,1.671 0.547,1.508C0.406,1.345 0.222,1.263 -0.005,1.263C-0.243,1.263 -0.435,1.345 -0.579,1.508C-0.724,1.671 -0.796,1.906 -0.796,2.214L-0.796,2.258C-0.796,2.569 -0.726,2.804 -0.585,2.964C-0.444,3.123 -0.249,3.202 0,3.202M0.165,3.73C-0.055,3.73 -0.246,3.682 -0.409,3.587C-0.572,3.492 -0.694,3.367 -0.775,3.214L-0.775,3.675L-1.439,3.675L-1.439,-0.528L-0.775,-0.528L-0.775,1.263C-0.69,1.116 -0.563,0.993 -0.393,0.892C-0.222,0.791 -0.036,0.741 0.165,0.741C0.535,0.741 0.84,0.872 1.08,1.134C1.319,1.395 1.439,1.752 1.439,2.202L1.439,2.246C1.439,2.701 1.321,3.061 1.085,3.329C0.849,3.597 0.542,3.73 0.165,3.73" style="fill-rule:nonzero;"/>
                    </g>
                    <g transform="matrix(1,0,0,1,660.936,855.69)">
                        <path d="M0,2.917L0,0.044L0.665,0.044L0.665,0.582C0.855,0.197 1.167,0.003 1.599,0L1.599,0.621C1.288,0.624 1.054,0.687 0.898,0.808C0.743,0.929 0.665,1.134 0.665,1.423L0.665,2.917L0,2.917Z" style="fill-rule:nonzero;"/>
                    </g>
                    <g transform="matrix(1,0,0,1,663.754,856.152)">
                        <path d="M0,2.032C0.209,2.032 0.379,1.98 0.511,1.876C0.643,1.771 0.709,1.629 0.709,1.45L0.709,1.164L0.368,1.164C-0.185,1.164 -0.461,1.32 -0.461,1.631C-0.461,1.898 -0.308,2.032 0,2.032M-0.159,2.511C-0.442,2.511 -0.672,2.439 -0.852,2.299C-1.031,2.157 -1.121,1.944 -1.121,1.659C-1.121,1.344 -0.987,1.113 -0.72,0.967C-0.453,0.82 -0.095,0.747 0.351,0.747L0.709,0.747L0.709,0.598C0.709,0.4 0.669,0.255 0.591,0.161C0.512,0.068 0.377,0.021 0.187,0.021C-0.146,0.021 -0.33,0.172 -0.363,0.471L-1.006,0.471C-0.98,0.153 -0.854,-0.085 -0.629,-0.242C-0.404,-0.4 -0.119,-0.479 0.225,-0.479C0.991,-0.479 1.374,-0.129 1.374,0.571L1.374,2.455L0.72,2.455L0.72,2.103C0.515,2.375 0.222,2.511 -0.159,2.511" style="fill-rule:nonzero;"/>
                    </g>
                    <g transform="matrix(1,0,0,1,665.671,855.673)">
                        <path d="M0,2.934L0,0.061L0.665,0.061L0.665,0.517C0.738,0.367 0.855,0.243 1.016,0.146C1.178,0.049 1.37,0 1.594,0C1.897,0 2.137,0.093 2.313,0.278C2.489,0.463 2.577,0.746 2.577,1.126L2.577,2.934L1.912,2.934L1.912,1.187C1.912,0.971 1.866,0.812 1.775,0.709C1.683,0.607 1.538,0.555 1.341,0.555C1.143,0.555 0.981,0.615 0.854,0.734C0.728,0.853 0.665,1.022 0.665,1.242L0.665,2.934L0,2.934Z" style="fill-rule:nonzero;"/>
                    </g>
                    <g transform="matrix(1,0,0,1,670.033,854.932)">
                        <path d="M0,3.202C0.242,3.202 0.436,3.122 0.583,2.961C0.729,2.8 0.802,2.563 0.802,2.252L0.802,2.208C0.802,1.896 0.734,1.661 0.599,1.502C0.463,1.343 0.273,1.263 0.028,1.263C-0.218,1.263 -0.409,1.347 -0.544,1.513C-0.68,1.68 -0.747,1.917 -0.747,2.224L-0.747,2.268C-0.747,2.572 -0.678,2.804 -0.541,2.964C-0.404,3.123 -0.224,3.202 0,3.202M-0.165,3.73C-0.538,3.73 -0.842,3.602 -1.077,3.348C-1.311,3.094 -1.428,2.739 -1.428,2.285L-1.428,2.241C-1.428,1.787 -1.308,1.423 -1.066,1.15C-0.824,0.878 -0.515,0.741 -0.137,0.741C0.287,0.741 0.593,0.908 0.78,1.241L0.78,-0.528L1.445,-0.528L1.445,3.675L0.78,3.675L0.78,3.191C0.7,3.342 0.572,3.469 0.398,3.573C0.224,3.678 0.037,3.73 -0.165,3.73" style="fill-rule:nonzero;"/>
                    </g>
                    <g transform="matrix(1,0,0,1,0,-3687.71)">
                        <rect x="671.962" y="4544.51" width="1.318" height="0.55"/>
                    </g>
                    <g transform="matrix(1,0,0,1,0,-3688.85)">
                        <rect x="673.786" y="4543.25" width="0.665" height="4.203"/>
                    </g>
                    <g transform="matrix(1,0,0,1,675.539,857.465)">
                        <path d="M0,-0.595L1.434,-0.595C1.401,-1.071 1.168,-1.309 0.736,-1.309C0.538,-1.309 0.374,-1.245 0.245,-1.119C0.114,-0.992 0.033,-0.818 0,-0.595M0.763,1.197C0.335,1.197 -0.015,1.065 -0.286,0.801C-0.557,0.537 -0.693,0.182 -0.693,-0.265L-0.693,-0.309C-0.693,-0.748 -0.558,-1.106 -0.289,-1.38C-0.019,-1.655 0.322,-1.792 0.736,-1.792C1.124,-1.792 1.448,-1.671 1.706,-1.43C1.964,-1.188 2.093,-0.825 2.093,-0.342L2.093,-0.15L-0.011,-0.15C0,0.125 0.073,0.336 0.209,0.482C0.344,0.629 0.535,0.702 0.78,0.702C1.168,0.702 1.388,0.555 1.439,0.262L2.082,0.262C2.035,0.563 1.896,0.794 1.665,0.955C1.434,1.116 1.134,1.197 0.763,1.197" style="fill-rule:nonzero;"/>
                    </g>
                    <g transform="matrix(1,0,0,1,679.247,854.932)">
                        <path d="M0,3.202C0.242,3.202 0.436,3.122 0.583,2.961C0.729,2.8 0.802,2.563 0.802,2.252L0.802,2.208C0.802,1.896 0.734,1.661 0.599,1.502C0.463,1.343 0.273,1.263 0.028,1.263C-0.218,1.263 -0.409,1.347 -0.544,1.513C-0.68,1.68 -0.747,1.917 -0.747,2.224L-0.747,2.268C-0.747,2.572 -0.678,2.804 -0.541,2.964C-0.404,3.123 -0.224,3.202 0,3.202M-0.165,3.73C-0.538,3.73 -0.842,3.602 -1.077,3.348C-1.311,3.094 -1.428,2.739 -1.428,2.285L-1.428,2.241C-1.428,1.787 -1.308,1.423 -1.066,1.15C-0.824,0.878 -0.515,0.741 -0.137,0.741C0.287,0.741 0.593,0.908 0.78,1.241L0.78,-0.528L1.445,-0.528L1.445,3.675L0.78,3.675L0.78,3.191C0.7,3.342 0.572,3.469 0.398,3.573C0.224,3.678 0.037,3.73 -0.165,3.73" style="fill-rule:nonzero;"/>
                    </g>
                    <g transform="matrix(1,0,0,1,659.117,860.425)">
                        <path d="M0,3.203C0.245,3.203 0.433,3.123 0.563,2.962C0.693,2.801 0.758,2.566 0.758,2.259L0.758,2.215C0.758,1.907 0.687,1.672 0.547,1.509C0.406,1.346 0.222,1.264 -0.005,1.264C-0.243,1.264 -0.435,1.346 -0.579,1.509C-0.724,1.672 -0.796,1.907 -0.796,2.215L-0.796,2.259C-0.796,2.57 -0.726,2.805 -0.585,2.965C-0.444,3.124 -0.249,3.203 0,3.203M0.165,3.73C-0.055,3.73 -0.246,3.683 -0.409,3.588C-0.572,3.493 -0.694,3.368 -0.775,3.215L-0.775,3.676L-1.439,3.676L-1.439,-0.527L-0.775,-0.527L-0.775,1.264C-0.69,1.117 -0.563,0.994 -0.393,0.893C-0.222,0.792 -0.036,0.742 0.165,0.742C0.535,0.742 0.84,0.873 1.08,1.135C1.319,1.396 1.439,1.753 1.439,2.203L1.439,2.247C1.439,2.702 1.321,3.062 1.085,3.33C0.849,3.598 0.542,3.73 0.165,3.73" style="fill-rule:nonzero;"/>
                    </g>
                    <g transform="matrix(1,0,0,1,661.897,861.227)">
                        <path d="M0,2.928C-0.3,2.928 -0.54,2.839 -0.72,2.659C-0.899,2.48 -0.989,2.207 -0.989,1.841L-0.989,0L-0.324,0L-0.324,1.764C-0.324,1.98 -0.278,2.139 -0.187,2.241C-0.095,2.344 0.047,2.396 0.242,2.396C0.432,2.396 0.591,2.335 0.72,2.214C0.848,2.093 0.912,1.925 0.912,1.709L0.912,0L1.577,0L1.577,2.873L0.912,2.873L0.912,2.423C0.835,2.574 0.719,2.695 0.563,2.788C0.407,2.882 0.22,2.928 0,2.928" style="fill-rule:nonzero;"/>
                    </g>
                    <g transform="matrix(1,0,0,1,665.023,861.167)">
                        <path d="M0,2.988C-0.37,2.988 -0.659,2.906 -0.868,2.741C-1.077,2.576 -1.188,2.342 -1.203,2.038L-0.577,2.038C-0.558,2.192 -0.505,2.307 -0.417,2.384C-0.33,2.461 -0.192,2.5 -0.005,2.5C0.339,2.5 0.511,2.377 0.511,2.132C0.511,2.018 0.464,1.932 0.371,1.876C0.277,1.819 0.119,1.772 -0.104,1.736C-0.489,1.674 -0.758,1.579 -0.912,1.453C-1.066,1.326 -1.143,1.13 -1.143,0.862C-1.143,0.592 -1.036,0.38 -0.824,0.227C-0.612,0.076 -0.359,0 -0.066,0C0.623,0 0.998,0.289 1.06,0.868L0.445,0.868C0.416,0.736 0.362,0.638 0.283,0.577C0.204,0.514 0.088,0.483 -0.066,0.483C-0.208,0.483 -0.32,0.514 -0.401,0.577C-0.482,0.638 -0.522,0.721 -0.522,0.824C-0.522,0.926 -0.48,1.004 -0.396,1.054C-0.311,1.106 -0.156,1.152 0.072,1.192C0.445,1.251 0.718,1.341 0.89,1.461C1.062,1.582 1.149,1.785 1.149,2.071C1.149,2.364 1.049,2.591 0.849,2.75C0.649,2.909 0.366,2.988 0,2.988" style="fill-rule:nonzero;"/>
                    </g>
                    <g transform="matrix(1,0,0,1,0,-3677.77)">
                        <path d="M666.55,4539L667.215,4539L667.215,4541.87L666.55,4541.87L666.55,4539ZM667.155,4538.41C667.078,4538.49 666.985,4538.52 666.875,4538.52C666.765,4538.52 666.672,4538.49 666.595,4538.41C666.518,4538.34 666.479,4538.25 666.479,4538.14C666.479,4538.03 666.518,4537.94 666.595,4537.87C666.672,4537.8 666.765,4537.76 666.875,4537.76C666.985,4537.76 667.078,4537.8 667.155,4537.87C667.232,4537.94 667.27,4538.03 667.27,4538.14C667.27,4538.25 667.232,4538.34 667.155,4538.41" style="fill-rule:nonzero;"/>
                    </g>
                    <g transform="matrix(1,0,0,1,667.803,861.167)">
                        <path d="M0,2.934L0,0.061L0.665,0.061L0.665,0.517C0.738,0.367 0.855,0.243 1.016,0.146C1.178,0.049 1.37,0 1.594,0C1.897,0 2.137,0.093 2.313,0.278C2.489,0.463 2.577,0.746 2.577,1.126L2.577,2.934L1.912,2.934L1.912,1.187C1.912,0.971 1.866,0.812 1.775,0.709C1.683,0.607 1.538,0.555 1.341,0.555C1.143,0.555 0.981,0.615 0.854,0.734C0.728,0.853 0.665,1.022 0.665,1.242L0.665,2.934L0,2.934Z" style="fill-rule:nonzero;"/>
                    </g>
                    <g transform="matrix(1,0,0,1,671.424,862.958)">
                        <path d="M0,-0.594L1.434,-0.594C1.401,-1.07 1.168,-1.308 0.736,-1.308C0.538,-1.308 0.374,-1.244 0.245,-1.118C0.114,-0.992 0.033,-0.817 0,-0.594M0.763,1.197C0.335,1.197 -0.015,1.065 -0.286,0.802C-0.557,0.538 -0.693,0.183 -0.693,-0.264L-0.693,-0.308C-0.693,-0.747 -0.558,-1.105 -0.289,-1.379C-0.019,-1.654 0.322,-1.791 0.736,-1.791C1.124,-1.791 1.448,-1.67 1.706,-1.429C1.964,-1.187 2.093,-0.824 2.093,-0.341L2.093,-0.149L-0.011,-0.149C0,0.126 0.073,0.337 0.209,0.483C0.344,0.63 0.535,0.703 0.78,0.703C1.168,0.703 1.388,0.556 1.439,0.263L2.082,0.263C2.035,0.564 1.896,0.795 1.665,0.956C1.434,1.117 1.134,1.197 0.763,1.197" style="fill-rule:nonzero;"/>
                    </g>
                    <g transform="matrix(1,0,0,1,674.901,861.167)">
                        <path d="M0,2.988C-0.37,2.988 -0.659,2.906 -0.868,2.741C-1.077,2.576 -1.188,2.342 -1.203,2.038L-0.577,2.038C-0.558,2.192 -0.505,2.307 -0.417,2.384C-0.33,2.461 -0.192,2.5 -0.005,2.5C0.339,2.5 0.511,2.377 0.511,2.132C0.511,2.018 0.464,1.932 0.371,1.876C0.277,1.819 0.119,1.772 -0.104,1.736C-0.489,1.674 -0.758,1.579 -0.912,1.453C-1.066,1.326 -1.143,1.13 -1.143,0.862C-1.143,0.592 -1.036,0.38 -0.824,0.227C-0.612,0.076 -0.359,0 -0.066,0C0.623,0 0.998,0.289 1.06,0.868L0.445,0.868C0.416,0.736 0.362,0.638 0.283,0.577C0.204,0.514 0.088,0.483 -0.066,0.483C-0.208,0.483 -0.32,0.514 -0.401,0.577C-0.482,0.638 -0.522,0.721 -0.522,0.824C-0.522,0.926 -0.48,1.004 -0.396,1.054C-0.311,1.106 -0.156,1.152 0.072,1.192C0.445,1.251 0.718,1.341 0.89,1.461C1.062,1.582 1.149,1.785 1.149,2.071C1.149,2.364 1.048,2.591 0.849,2.75C0.649,2.909 0.366,2.988 0,2.988" style="fill-rule:nonzero;"/>
                    </g>
                    <g transform="matrix(1,0,0,1,677.396,861.167)">
                        <path d="M0,2.988C-0.37,2.988 -0.659,2.906 -0.868,2.741C-1.077,2.576 -1.188,2.342 -1.203,2.038L-0.577,2.038C-0.558,2.192 -0.505,2.307 -0.417,2.384C-0.33,2.461 -0.192,2.5 -0.005,2.5C0.339,2.5 0.511,2.377 0.511,2.132C0.511,2.018 0.464,1.932 0.371,1.876C0.277,1.819 0.119,1.772 -0.104,1.736C-0.489,1.674 -0.758,1.579 -0.912,1.453C-1.066,1.326 -1.143,1.13 -1.143,0.862C-1.143,0.592 -1.036,0.38 -0.824,0.227C-0.612,0.076 -0.359,0 -0.066,0C0.623,0 0.998,0.289 1.06,0.868L0.445,0.868C0.416,0.736 0.362,0.638 0.283,0.577C0.204,0.514 0.088,0.483 -0.066,0.483C-0.208,0.483 -0.32,0.514 -0.401,0.577C-0.482,0.638 -0.522,0.721 -0.522,0.824C-0.522,0.926 -0.48,1.004 -0.396,1.054C-0.311,1.106 -0.156,1.152 0.072,1.192C0.445,1.251 0.718,1.341 0.89,1.461C1.062,1.582 1.149,1.785 1.149,2.071C1.149,2.364 1.048,2.591 0.849,2.75C0.649,2.909 0.366,2.988 0,2.988" style="fill-rule:nonzero;"/>
                    </g>
                    <g transform="matrix(1,0,0,1,681.242,862.848)">
                        <path d="M0,0.627C0.234,0.627 0.426,0.548 0.574,0.391C0.723,0.233 0.797,0.019 0.797,-0.252L0.797,-0.291C0.797,-0.561 0.727,-0.774 0.588,-0.928C0.449,-1.082 0.26,-1.159 0.022,-1.159C-0.22,-1.159 -0.41,-1.078 -0.549,-0.917C-0.688,-0.756 -0.758,-0.544 -0.758,-0.279L-0.758,-0.235C-0.758,0.024 -0.687,0.233 -0.544,0.391C-0.401,0.548 -0.22,0.627 0,0.627M-0.022,2.308C-0.45,2.308 -0.778,2.222 -1.005,2.05C-1.233,1.878 -1.366,1.645 -1.406,1.352L-0.736,1.352C-0.678,1.652 -0.441,1.803 -0.027,1.803C0.507,1.803 0.775,1.544 0.775,1.027L0.775,0.605C0.691,0.751 0.563,0.877 0.393,0.981C0.223,1.086 0.037,1.138 -0.165,1.138C-0.531,1.138 -0.835,1.012 -1.077,0.759C-1.318,0.506 -1.439,0.176 -1.439,-0.23L-1.439,-0.269C-1.439,-0.672 -1.317,-1.008 -1.071,-1.277C-0.826,-1.546 -0.518,-1.681 -0.148,-1.681C0.277,-1.681 0.584,-1.514 0.775,-1.181L0.775,-1.62L1.439,-1.62L1.439,1.039C1.436,1.453 1.305,1.768 1.047,1.983C0.789,2.2 0.432,2.308 -0.022,2.308" style="fill-rule:nonzero;"/>
                    </g>
                    <g transform="matrix(1,0,0,1,683.253,861.184)">
                        <path d="M0,2.917L0,0.044L0.665,0.044L0.665,0.582C0.855,0.197 1.167,0.003 1.599,0L1.599,0.62C1.288,0.624 1.054,0.687 0.898,0.808C0.743,0.929 0.665,1.134 0.665,1.423L0.665,2.917L0,2.917Z" style="fill-rule:nonzero;"/>
                    </g>
                    <g transform="matrix(1,0,0,1,686.444,861.683)">
                        <path d="M0,1.957C0.245,1.957 0.438,1.871 0.579,1.701C0.72,1.53 0.791,1.297 0.791,1.001L0.791,0.962C0.791,0.666 0.72,0.432 0.579,0.262C0.438,0.091 0.245,0.006 0,0.006C-0.249,0.006 -0.444,0.091 -0.585,0.259C-0.726,0.428 -0.797,0.66 -0.797,0.957L-0.797,1.001C-0.797,1.297 -0.726,1.53 -0.585,1.701C-0.444,1.871 -0.249,1.957 0,1.957M1.055,2.066C0.776,2.338 0.423,2.473 -0.006,2.473C-0.434,2.473 -0.787,2.338 -1.063,2.066C-1.34,1.796 -1.478,1.444 -1.478,1.012L-1.478,0.968C-1.478,0.528 -1.339,0.171 -1.06,-0.104C-0.782,-0.378 -0.428,-0.516 0,-0.516C0.425,-0.516 0.776,-0.38 1.055,-0.109C1.333,0.162 1.472,0.516 1.472,0.951L1.472,0.995C1.472,1.438 1.333,1.796 1.055,2.066" style="fill-rule:nonzero;"/>
                    </g>
                    <g transform="matrix(1,0,0,1,688.807,861.228)">
                        <path d="M0,2.873L-0.879,0L-0.17,0L0.401,2.076L1.011,0L1.566,0L2.127,2.076L2.725,0L3.374,0L2.473,2.873L1.797,2.873L1.264,0.939L0.681,2.873L0,2.873Z" style="fill-rule:nonzero;"/>
                    </g>
                    <g transform="matrix(1,0,0,1,693.471,860.596)">
                        <path d="M0,3.555C-0.282,3.555 -0.497,3.482 -0.645,3.335C-0.794,3.189 -0.868,2.978 -0.868,2.703L-0.868,1.132L-1.253,1.132L-1.253,0.632L-0.868,0.632L-0.868,0L-0.203,0L-0.203,0.632L0.428,0.632L0.428,1.132L-0.203,1.132L-0.203,2.643C-0.203,2.888 -0.094,3.011 0.126,3.011C0.255,3.011 0.363,2.993 0.451,2.956L0.451,3.484C0.322,3.531 0.172,3.555 0,3.555" style="fill-rule:nonzero;"/>
                    </g>
                    <g transform="matrix(1,0,0,1,694.301,859.898)">
                        <path d="M0,4.203L0,0L0.665,0L0.665,1.786C0.738,1.636 0.855,1.512 1.016,1.415C1.178,1.318 1.37,1.269 1.594,1.269C1.897,1.269 2.137,1.362 2.313,1.547C2.489,1.732 2.577,2.015 2.577,2.395L2.577,4.203L1.912,4.203L1.912,2.456C1.912,2.24 1.866,2.081 1.775,1.978C1.683,1.876 1.538,1.824 1.341,1.824C1.143,1.824 0.981,1.884 0.854,2.003C0.728,2.122 0.665,2.291 0.665,2.511L0.665,4.203L0,4.203Z" style="fill-rule:nonzero;"/>
                    </g>
                </g>
            </g>
        </g>
    </g>
</svg>
