<?xml version="1.0" encoding="UTF-8" standalone="no"?>
<!DOCTYPE svg PUBLIC "-//W3C//DTD SVG 1.1//EN" "http://www.w3.org/Graphics/SVG/1.1/DTD/svg11.dtd">
<svg width="100%" height="100%" viewBox="0 0 401 45" version="1.1" xmlns="http://www.w3.org/2000/svg" xmlns:xlink="http://www.w3.org/1999/xlink" xml:space="preserve" xmlns:serif="http://www.serif.com/" style="fill-rule:evenodd;clip-rule:evenodd;stroke-linejoin:round;stroke-miterlimit:2;">
    <g transform="matrix(1,0,0,1,-2173,-70)">
        <g transform="matrix(1,0,0,0.617188,2098,0)">
            <g id="base-creative-mob" transform="matrix(0.51048,0,0,0.51048,36.7987,56.2613)">
                <g transform="matrix(8.33333,0,0,13.5021,94.3647,173.263)">
                    <path d="M0,1.507L0,3.98L1.622,3.98C1.926,3.98 2.174,3.942 2.368,3.864C2.561,3.787 2.712,3.687 2.821,3.565C2.93,3.442 3.005,3.303 3.046,3.149C3.087,2.994 3.107,2.838 3.107,2.679C3.107,2.497 3.083,2.333 3.036,2.188C2.988,2.043 2.906,1.92 2.791,1.819C2.675,1.72 2.521,1.643 2.33,1.588C2.14,1.533 1.899,1.507 1.608,1.507L0,1.507ZM0,-0.034L1.199,-0.034C1.453,-0.034 1.683,-0.052 1.888,-0.088C2.092,-0.125 2.266,-0.188 2.409,-0.279C2.552,-0.37 2.661,-0.494 2.736,-0.653C2.811,-0.812 2.849,-1.013 2.849,-1.254C2.849,-1.489 2.819,-1.686 2.76,-1.843C2.701,-2 2.61,-2.126 2.487,-2.221C2.365,-2.316 2.209,-2.385 2.02,-2.426C1.832,-2.467 1.608,-2.486 1.349,-2.486L0,-2.486L0,-0.034ZM-2.303,5.718L-2.303,-4.211L1.349,-4.211C2.035,-4.211 2.619,-4.147 3.101,-4.019C3.582,-3.892 3.975,-3.713 4.279,-3.481C4.583,-3.25 4.805,-2.968 4.944,-2.637C5.082,-2.305 5.152,-1.934 5.152,-1.526C5.152,-1.304 5.12,-1.089 5.056,-0.882C4.993,-0.675 4.893,-0.481 4.756,-0.3C4.62,-0.117 4.445,0.047 4.232,0.195C4.018,0.342 3.761,0.471 3.462,0.58C4.116,0.738 4.6,0.996 4.913,1.353C5.227,1.71 5.383,2.167 5.383,2.727C5.383,3.149 5.301,3.542 5.138,3.905C4.974,4.269 4.734,4.585 4.419,4.856C4.103,5.126 3.714,5.337 3.25,5.489C2.787,5.642 2.257,5.718 1.662,5.718L-2.303,5.718Z" style="fill:white;fill-rule:nonzero;"/>
                </g>
                <g transform="matrix(8.33333,0,0,13.5021,172.39,167.66)">
                    <path d="M0,2.337L2.712,2.337L1.799,-0.382C1.74,-0.555 1.67,-0.758 1.591,-0.991C1.511,-1.226 1.433,-1.478 1.356,-1.751C1.283,-1.475 1.208,-1.218 1.131,-0.981C1.054,-0.745 0.981,-0.541 0.913,-0.368L0,2.337ZM6.378,6.133L4.592,6.133C4.393,6.133 4.228,6.086 4.098,5.993C3.969,5.9 3.879,5.78 3.829,5.635L3.243,3.904L-0.532,3.904L-1.118,5.635C-1.163,5.763 -1.252,5.877 -1.383,5.98C-1.515,6.082 -1.677,6.133 -1.867,6.133L-3.666,6.133L0.177,-3.796L2.535,-3.796L6.378,6.133Z" style="fill:white;fill-rule:nonzero;"/>
                </g>
                <g transform="matrix(8.33333,0,0,13.5021,277.211,223.218)">
                    <path d="M0,-5.893C-0.068,-5.785 -0.139,-5.703 -0.214,-5.648C-0.29,-5.593 -0.386,-5.566 -0.504,-5.566C-0.609,-5.566 -0.721,-5.599 -0.842,-5.665C-0.962,-5.731 -1.098,-5.805 -1.25,-5.887C-1.402,-5.968 -1.576,-6.042 -1.772,-6.108C-1.967,-6.174 -2.19,-6.206 -2.439,-6.206C-2.871,-6.206 -3.193,-6.115 -3.404,-5.931C-3.615,-5.747 -3.72,-5.498 -3.72,-5.185C-3.72,-4.985 -3.657,-4.819 -3.53,-4.687C-3.402,-4.555 -3.236,-4.442 -3.029,-4.346C-2.822,-4.251 -2.586,-4.164 -2.32,-4.084C-2.054,-4.004 -1.783,-3.916 -1.506,-3.819C-1.229,-3.721 -0.957,-3.606 -0.691,-3.474C-0.426,-3.342 -0.189,-3.174 0.017,-2.97C0.224,-2.766 0.391,-2.517 0.518,-2.224C0.645,-1.931 0.708,-1.578 0.708,-1.164C0.708,-0.706 0.63,-0.276 0.471,0.124C0.311,0.523 0.081,0.872 -0.222,1.169C-0.524,1.467 -0.896,1.701 -1.339,1.872C-1.782,2.042 -2.285,2.127 -2.848,2.127C-3.157,2.127 -3.472,2.095 -3.792,2.032C-4.113,1.968 -4.422,1.878 -4.722,1.762C-5.022,1.647 -5.304,1.509 -5.567,1.35C-5.831,1.191 -6.06,1.014 -6.255,0.819L-5.574,-0.258C-5.524,-0.339 -5.454,-0.406 -5.363,-0.456C-5.272,-0.505 -5.174,-0.531 -5.07,-0.531C-4.933,-0.531 -4.796,-0.488 -4.657,-0.401C-4.519,-0.315 -4.362,-0.219 -4.187,-0.115C-4.012,-0.01 -3.812,0.085 -3.584,0.171C-3.357,0.257 -3.089,0.3 -2.78,0.3C-2.362,0.3 -2.037,0.209 -1.806,0.025C-1.574,-0.16 -1.458,-0.451 -1.458,-0.851C-1.458,-1.082 -1.522,-1.271 -1.649,-1.416C-1.776,-1.562 -1.943,-1.682 -2.15,-1.778C-2.356,-1.873 -2.592,-1.957 -2.855,-2.03C-3.119,-2.102 -3.389,-2.183 -3.666,-2.272C-3.943,-2.36 -4.214,-2.469 -4.477,-2.599C-4.74,-2.728 -4.975,-2.899 -5.182,-3.11C-5.389,-3.321 -5.556,-3.584 -5.683,-3.9C-5.81,-4.216 -5.874,-4.606 -5.874,-5.069C-5.874,-5.442 -5.799,-5.805 -5.649,-6.16C-5.499,-6.513 -5.279,-6.83 -4.988,-7.107C-4.697,-7.383 -4.34,-7.605 -3.918,-7.771C-3.496,-7.937 -3.012,-8.02 -2.467,-8.02C-2.162,-8.02 -1.866,-7.996 -1.578,-7.948C-1.289,-7.9 -1.015,-7.83 -0.756,-7.737C-0.497,-7.643 -0.255,-7.533 -0.031,-7.403C0.194,-7.274 0.395,-7.126 0.572,-6.963L0,-5.893Z" style="fill:white;fill-rule:nonzero;"/>
                </g>
                <g transform="matrix(8.33333,0,0,13.5021,344.789,250.471)">
                    <path d="M0,-9.929L0,-8.158L-4.075,-8.158L-4.075,-5.84L-0.954,-5.84L-0.954,-4.137L-4.075,-4.137L-4.075,-1.772L0,-1.772L0,0L-6.392,0L-6.392,-9.929L0,-9.929Z" style="fill:white;fill-rule:nonzero;"/>
                </g>
                <g transform="matrix(8.33333,0,0,13.5021,418.041,142.165)">
                    <path d="M0,6.399C0.045,6.399 0.084,6.415 0.116,6.447L0.388,6.74C0.188,6.954 -0.03,7.145 -0.266,7.316C-0.502,7.486 -0.76,7.631 -1.039,7.752C-1.319,7.873 -1.625,7.965 -1.959,8.031C-2.293,8.097 -2.66,8.129 -3.06,8.129C-3.727,8.129 -4.34,8.013 -4.896,7.779C-5.453,7.545 -5.93,7.213 -6.327,6.784C-6.725,6.355 -7.035,5.836 -7.257,5.227C-7.48,4.619 -7.591,3.941 -7.591,3.196C-7.591,2.465 -7.477,1.797 -7.247,1.193C-7.018,0.588 -6.695,0.07 -6.28,-0.364C-5.864,-0.797 -5.366,-1.134 -4.787,-1.372C-4.208,-1.611 -3.568,-1.73 -2.869,-1.73C-2.519,-1.73 -2.199,-1.705 -1.908,-1.652C-1.618,-1.6 -1.346,-1.525 -1.094,-1.427C-0.842,-1.33 -0.604,-1.207 -0.382,-1.063C-0.159,-0.917 0.059,-0.749 0.272,-0.558L0.061,-0.251C0.025,-0.197 -0.032,-0.17 -0.109,-0.17C-0.15,-0.17 -0.202,-0.194 -0.266,-0.242C-0.33,-0.289 -0.41,-0.348 -0.508,-0.418C-0.606,-0.489 -0.723,-0.566 -0.862,-0.65C-1.001,-0.735 -1.165,-0.812 -1.356,-0.882C-1.547,-0.953 -1.767,-1.011 -2.017,-1.059C-2.267,-1.107 -2.551,-1.13 -2.869,-1.13C-3.455,-1.13 -3.994,-1.03 -4.484,-0.828C-4.974,-0.625 -5.397,-0.336 -5.751,0.038C-6.106,0.413 -6.382,0.867 -6.579,1.401C-6.777,1.935 -6.876,2.533 -6.876,3.196C-6.876,3.878 -6.778,4.487 -6.583,5.023C-6.388,5.559 -6.117,6.012 -5.772,6.382C-5.427,6.753 -5.019,7.037 -4.549,7.234C-4.078,7.431 -3.568,7.53 -3.019,7.53C-2.674,7.53 -2.366,7.507 -2.096,7.462C-1.825,7.417 -1.577,7.348 -1.349,7.257C-1.122,7.167 -0.911,7.055 -0.716,6.923C-0.521,6.793 -0.327,6.637 -0.136,6.461C-0.114,6.442 -0.092,6.427 -0.072,6.417C-0.051,6.405 -0.027,6.399 0,6.399" style="fill:white;fill-rule:nonzero;"/>
                </g>
                <g transform="matrix(8.33333,0,0,13.5021,445.918,186.144)">
                    <path d="M0,-0.115L1.677,-0.115C2.104,-0.115 2.486,-0.167 2.825,-0.269C3.163,-0.371 3.449,-0.518 3.683,-0.709C3.917,-0.9 4.095,-1.13 4.218,-1.398C4.341,-1.667 4.402,-1.969 4.402,-2.306C4.402,-2.993 4.177,-3.503 3.727,-3.835C3.278,-4.168 2.624,-4.333 1.765,-4.333L0,-4.333L0,-0.115ZM0,0.403L0,4.764L-0.695,4.764L-0.695,-4.879L1.765,-4.879C2.878,-4.879 3.709,-4.664 4.259,-4.234C4.808,-3.805 5.084,-3.175 5.084,-2.344C5.084,-1.975 5.02,-1.639 4.893,-1.335C4.766,-1.031 4.583,-0.763 4.344,-0.534C4.106,-0.304 3.818,-0.116 3.482,0.031C3.146,0.179 2.767,0.276 2.344,0.321C2.454,0.389 2.551,0.48 2.638,0.593L5.956,4.764L5.349,4.764C5.277,4.764 5.214,4.75 5.162,4.723C5.11,4.696 5.059,4.651 5.009,4.586L1.922,0.675C1.844,0.575 1.761,0.505 1.673,0.464C1.585,0.423 1.447,0.403 1.261,0.403L0,0.403Z" style="fill:white;fill-rule:nonzero;"/>
                </g>
                <g transform="matrix(8.33333,0,0,13.5021,557.105,250.472)">
                    <path d="M0,-9.643L0,-9.064L-5.077,-9.064L-5.077,-5.165L-0.852,-5.165L-0.852,-4.6L-5.077,-4.6L-5.077,-0.58L0,-0.58L0,0L-5.779,0L-5.779,-9.643L0,-9.643Z" style="fill:white;fill-rule:nonzero;"/>
                </g>
                <g transform="matrix(8.33333,0,0,13.5021,581.639,167.565)">
                    <path d="M0,2.637L4.32,2.637L2.351,-2.235C2.319,-2.312 2.287,-2.399 2.255,-2.497C2.223,-2.595 2.191,-2.698 2.16,-2.807C2.128,-2.698 2.096,-2.595 2.064,-2.497C2.032,-2.399 2.001,-2.31 1.969,-2.228L0,2.637ZM6.453,6.14L5.915,6.14C5.851,6.14 5.799,6.122 5.758,6.089C5.717,6.055 5.685,6.01 5.663,5.955L4.524,3.156L-0.211,3.156L-1.343,5.955C-1.361,6.006 -1.393,6.049 -1.438,6.085C-1.484,6.121 -1.538,6.14 -1.602,6.14L-2.133,6.14L1.812,-3.503L2.508,-3.503L6.453,6.14Z" style="fill:white;fill-rule:nonzero;"/>
                </g>
                <g transform="matrix(8.33333,0,0,13.5021,692.936,250.472)">
                    <path d="M0,-9.643L0,-9.05L-3.386,-9.05L-3.386,0L-4.082,0L-4.082,-9.05L-7.489,-9.05L-7.489,-9.643L0,-9.643Z" style="fill:white;fill-rule:nonzero;"/>
                </g>
                <g transform="matrix(-8.33333,0,0,13.5021,5979.29,-61149.5)">
                    <rect x="631.876" y="4537.8" width="0.702" height="9.643" style="fill:white;"/>
                </g>
                <g transform="matrix(8.33333,0,0,13.5021,727.458,250.472)">
                    <path d="M0,-9.643L0.552,-9.643C0.615,-9.643 0.668,-9.625 0.708,-9.592C0.75,-9.557 0.781,-9.513 0.804,-9.458L4.089,-1.459C4.175,-1.249 4.246,-1.027 4.3,-0.791C4.35,-1.037 4.416,-1.259 4.498,-1.459L7.775,-9.458C7.798,-9.509 7.83,-9.552 7.874,-9.588C7.917,-9.624 7.971,-9.643 8.034,-9.643L8.579,-9.643L4.599,0L3.979,0L0,-9.643Z" style="fill:white;fill-rule:nonzero;"/>
                </g>
                <g transform="matrix(8.33333,0,0,13.5021,858.749,250.472)">
                    <path d="M0,-9.643L0,-9.064L-5.077,-9.064L-5.077,-5.165L-0.852,-5.165L-0.852,-4.6L-5.077,-4.6L-5.077,-0.58L0,-0.58L0,0L-5.778,0L-5.778,-9.643L0,-9.643Z" style="fill:white;fill-rule:nonzero;"/>
                </g>
            </g>
        </g>
    </g>
</svg>
