<?xml version="1.0" encoding="UTF-8" standalone="no"?>
<!DOCTYPE svg PUBLIC "-//W3C//DTD SVG 1.1//EN" "http://www.w3.org/Graphics/SVG/1.1/DTD/svg11.dtd">
<svg width="100%" height="100%" viewBox="0 0 53 63" version="1.1" xmlns="http://www.w3.org/2000/svg" xmlns:xlink="http://www.w3.org/1999/xlink" xml:space="preserve" xmlns:serif="http://www.serif.com/" style="fill-rule:evenodd;clip-rule:evenodd;stroke-linejoin:round;stroke-miterlimit:2;">
    <g transform="matrix(1,0,0,1,-1915,-269)">
        <g transform="matrix(1,0,0,1,1490,0)">
            <g transform="matrix(0.544686,0,0,0.544686,14.3316,154.237)">
                <path d="M841.671,240.785L825.724,231.578C826.942,234.766 827.995,238.325 828.795,242.29L837.8,247.489C840.296,248.93 842.569,252.867 842.569,255.749L842.569,291.429C842.569,294.311 840.296,298.248 837.8,299.689L834.586,301.545C822.63,308.448 810.454,292.771 808.616,280.951C806.528,280.514 804.357,280.283 802.15,280.283C799.929,280.283 797.746,280.516 795.647,280.958C793.806,292.777 781.632,308.446 769.679,301.545L766.464,299.689C763.968,298.248 761.696,294.311 761.696,291.429L761.696,255.748C761.696,252.867 763.968,248.929 766.464,247.488L775.51,242.264C776.313,238.298 777.366,234.739 778.587,231.55L762.594,240.784C757.749,243.581 753.955,250.154 753.955,255.748L753.955,291.429C753.955,297.023 757.749,303.596 762.594,306.392L793.493,324.232C795.915,325.631 799.024,326.33 802.132,326.33C805.24,326.33 808.349,325.631 810.771,324.232L841.671,306.392C846.515,303.595 850.31,297.022 850.31,291.429L850.31,255.748C850.31,250.155 846.515,243.582 841.671,240.785ZM827.949,268.866C827.949,265.368 826.523,262.188 824.225,259.875L824.258,259.875C824.258,221.542 802.15,212.123 802.15,212.123C802.15,212.123 780.045,221.541 780.043,259.871C777.743,262.184 776.316,265.366 776.316,268.866C776.316,268.866 775.772,275.581 778.954,282.576C784.638,277.372 792.921,274.09 802.15,274.09C811.366,274.09 819.638,277.362 825.321,282.553C828.492,275.566 827.949,268.866 827.949,268.866ZM802.132,244.403C798.583,244.403 795.706,241.526 795.706,237.977C795.706,234.427 798.583,231.55 802.132,231.55C805.682,231.55 808.559,234.428 808.559,237.977C808.559,241.526 805.682,244.403 802.132,244.403Z" style="fill:rgb(90,88,240);"/>
            </g>
        </g>
    </g>
</svg>
