<?xml version="1.0" encoding="UTF-8" standalone="no"?>
<!DOCTYPE svg PUBLIC "-//W3C//DTD SVG 1.1//EN" "http://www.w3.org/Graphics/SVG/1.1/DTD/svg11.dtd">
<svg width="100%" height="100%" viewBox="0 0 299 76" version="1.1" xmlns="http://www.w3.org/2000/svg" xmlns:xlink="http://www.w3.org/1999/xlink" xml:space="preserve" xmlns:serif="http://www.serif.com/" style="fill-rule:evenodd;clip-rule:evenodd;stroke-linejoin:round;stroke-miterlimit:2;">
    <g transform="matrix(1,0,0,1,-1553,-273)">
        <g transform="matrix(1,0,0,1,1490,0)">
            <g id="fuselage" transform="matrix(1,0,0,1,-1490,0)">
                <path d="M1788.53,293.317C1777.6,293.317 1769.2,301.673 1769.2,312.897C1769.2,324.12 1777.6,332.435 1788.53,332.435C1795.7,332.435 1801.48,328.79 1804.67,323.383L1804.67,329.527C1804.67,340.914 1796.6,346.116 1787.71,346.116C1781.65,346.116 1776.45,343.904 1772.97,340.546L1771.53,342.717C1775.22,346.403 1781.12,348.738 1787.71,348.738C1798.24,348.738 1807.5,342.471 1807.5,329.404L1807.5,293.768L1804.67,293.768L1804.67,302.41C1801.48,296.963 1795.7,293.317 1788.53,293.317ZM1663.97,297.741C1660.69,295.324 1655.24,293.358 1649.1,293.358C1640.66,293.358 1634.56,297.29 1634.56,304.049C1634.56,309.128 1638,312.897 1646.76,313.798L1652.17,314.33C1658.77,314.986 1662.08,317.443 1662.08,321.621C1662.08,327.233 1656.43,329.773 1648.93,329.773C1642.13,329.773 1638.04,327.807 1634.84,325.349L1633.41,327.602C1637.34,330.551 1642.59,332.435 1648.89,332.435C1658.23,332.435 1664.99,328.667 1664.99,321.458C1664.99,315.641 1660.53,312.487 1652.74,311.668L1647.38,311.094C1640.33,310.357 1637.51,307.776 1637.51,303.926C1637.51,298.888 1642.46,295.979 1649.14,295.979C1654.79,295.979 1659.87,298.028 1662.62,300.035L1663.97,297.741ZM1627.14,293.768L1624.28,293.768L1624.28,316.133C1624.28,324.693 1618.62,329.732 1610.27,329.732C1601.95,329.732 1596.26,324.693 1596.26,316.133L1596.26,293.768L1593.43,293.768L1593.43,316.378C1593.43,326.578 1600.64,332.435 1610.27,332.435C1619.89,332.435 1627.14,326.578 1627.14,316.378L1627.14,293.768ZM1687.48,293.317C1676.87,293.317 1668.6,301.55 1668.6,312.897C1668.6,324.366 1676.58,332.435 1687.64,332.435C1693.05,332.435 1698.42,331.002 1703.37,325.554L1701.65,323.588C1698.13,327.274 1693.87,329.732 1687.81,329.732C1678.84,329.732 1672,323.547 1671.59,313.88L1705.34,313.88C1705.34,313.47 1705.38,313.06 1705.38,312.61C1705.17,301.386 1697.47,293.317 1687.48,293.317ZM1833.88,293.317C1823.27,293.317 1814.99,301.55 1814.99,312.897C1814.99,324.366 1822.98,332.435 1834.04,332.435C1839.45,332.435 1844.81,331.002 1849.77,325.554L1848.05,323.588C1844.53,327.274 1840.27,329.732 1834.2,329.732C1825.23,329.732 1818.39,323.547 1817.98,313.88L1851.74,313.88C1851.74,313.47 1851.78,313.06 1851.78,312.61C1851.57,301.386 1843.87,293.317 1833.88,293.317ZM1761.7,293.768L1758.88,293.768L1758.88,302.738C1755.72,297.085 1749.86,293.317 1742.57,293.317C1731.6,293.317 1723.2,301.673 1723.2,312.897C1723.2,324.12 1731.6,332.435 1742.57,332.435C1749.86,332.435 1755.72,328.667 1758.88,323.055L1758.88,331.985L1761.7,331.985L1761.7,293.768ZM1585.77,301.673L1556.82,301.673L1556.82,277.547L1591.88,277.547L1591.88,274.638L1553.78,274.638L1553.78,331.985L1556.82,331.985L1556.82,304.54L1585.77,304.54L1585.77,301.673ZM1715.7,273L1712.84,273L1712.84,331.985L1715.7,331.985L1715.7,273ZM1742.57,296.02C1752.04,296.02 1759.04,303.271 1759.04,312.897C1759.04,322.482 1752.04,329.732 1742.57,329.732C1733.07,329.732 1726.11,322.4 1726.11,312.897C1726.11,303.353 1733.03,296.02 1742.57,296.02ZM1788.53,296.02C1797.99,296.02 1805.04,303.271 1805.04,312.897C1805.04,322.482 1797.99,329.732 1788.53,329.732C1779.07,329.732 1772.11,322.4 1772.11,312.897C1772.11,303.353 1778.99,296.02 1788.53,296.02ZM1687.44,296.02C1695.51,296.02 1701.82,302.41 1702.35,311.258L1671.59,311.258C1672.32,302.451 1678.84,296.02 1687.44,296.02ZM1833.84,296.02C1841.9,296.02 1848.21,302.41 1848.75,311.258L1817.98,311.258C1818.72,302.451 1825.23,296.02 1833.84,296.02Z" style="fill-rule:nonzero;"/>
            </g>
        </g>
    </g>
</svg>
